<mxfile host="app.diagrams.net" modified="2023-10-29T23:26:19.806Z" agent="Mozilla/5.0 (Windows NT 10.0; Win64; x64) AppleWebKit/537.36 (KHTML, like Gecko) Chrome/118.0.0.0 Safari/537.36" etag="2KrwGCGTTM-Ksgv4Dvbf" version="22.0.8" type="device" pages="3">
  <diagram id="mCyr1kptdM3YggUfpTlr" name="Варіант (а)">
    <mxGraphModel dx="1900" dy="1674" grid="1" gridSize="10" guides="1" tooltips="1" connect="1" arrows="1" fold="1" page="1" pageScale="1" pageWidth="850" pageHeight="1100" math="0" shadow="0">
      <root>
        <mxCell id="0" />
        <mxCell id="1" parent="0" />
        <mxCell id="NR5pUmCvTBosV-Qdy8rM-28" value="Тренувальні програми" style="shape=table;startSize=30;container=1;collapsible=1;childLayout=tableLayout;fixedRows=1;rowLines=0;fontStyle=1;align=center;resizeLast=1;fontSize=14;" parent="1" vertex="1">
          <mxGeometry x="310" y="-810" width="200" height="160" as="geometry" />
        </mxCell>
        <mxCell id="NR5pUmCvTBosV-Qdy8rM-29" value="" style="shape=partialRectangle;collapsible=0;dropTarget=0;pointerEvents=0;fillColor=none;top=0;left=0;bottom=1;right=0;points=[[0,0.5],[1,0.5]];portConstraint=eastwest;" parent="NR5pUmCvTBosV-Qdy8rM-28" vertex="1">
          <mxGeometry y="30" width="200" height="30" as="geometry" />
        </mxCell>
        <mxCell id="NR5pUmCvTBosV-Qdy8rM-30" value="PK" style="shape=partialRectangle;connectable=0;fillColor=none;top=0;left=0;bottom=0;right=0;fontStyle=1;overflow=hidden;fontSize=14;" parent="NR5pUmCvTBosV-Qdy8rM-29" vertex="1">
          <mxGeometry width="30" height="30" as="geometry">
            <mxRectangle width="30" height="30" as="alternateBounds" />
          </mxGeometry>
        </mxCell>
        <mxCell id="NR5pUmCvTBosV-Qdy8rM-31" value="Тренувальні програми" style="shape=partialRectangle;connectable=0;fillColor=none;top=0;left=0;bottom=0;right=0;align=left;spacingLeft=6;fontStyle=5;overflow=hidden;fontSize=14;" parent="NR5pUmCvTBosV-Qdy8rM-29" vertex="1">
          <mxGeometry x="30" width="170" height="30" as="geometry">
            <mxRectangle width="170" height="30" as="alternateBounds" />
          </mxGeometry>
        </mxCell>
        <mxCell id="NR5pUmCvTBosV-Qdy8rM-32" value="" style="shape=partialRectangle;collapsible=0;dropTarget=0;pointerEvents=0;fillColor=none;top=0;left=0;bottom=0;right=0;points=[[0,0.5],[1,0.5]];portConstraint=eastwest;" parent="NR5pUmCvTBosV-Qdy8rM-28" vertex="1">
          <mxGeometry y="60" width="200" height="60" as="geometry" />
        </mxCell>
        <mxCell id="NR5pUmCvTBosV-Qdy8rM-33" value="" style="shape=partialRectangle;connectable=0;fillColor=none;top=0;left=0;bottom=0;right=0;editable=1;overflow=hidden;" parent="NR5pUmCvTBosV-Qdy8rM-32" vertex="1">
          <mxGeometry width="30" height="60" as="geometry">
            <mxRectangle width="30" height="60" as="alternateBounds" />
          </mxGeometry>
        </mxCell>
        <mxCell id="NR5pUmCvTBosV-Qdy8rM-34" value="Назва&#xa;&#xa;План" style="shape=partialRectangle;connectable=0;fillColor=none;top=0;left=0;bottom=0;right=0;align=left;spacingLeft=6;overflow=hidden;fontSize=14;verticalAlign=top;" parent="NR5pUmCvTBosV-Qdy8rM-32" vertex="1">
          <mxGeometry x="30" width="170" height="60" as="geometry">
            <mxRectangle width="170" height="60" as="alternateBounds" />
          </mxGeometry>
        </mxCell>
        <mxCell id="NR5pUmCvTBosV-Qdy8rM-38" value="" style="shape=partialRectangle;collapsible=0;dropTarget=0;pointerEvents=0;fillColor=none;top=0;left=0;bottom=0;right=0;points=[[0,0.5],[1,0.5]];portConstraint=eastwest;" parent="NR5pUmCvTBosV-Qdy8rM-28" vertex="1">
          <mxGeometry y="120" width="200" height="40" as="geometry" />
        </mxCell>
        <mxCell id="NR5pUmCvTBosV-Qdy8rM-39" value="FK" style="shape=partialRectangle;connectable=0;fillColor=none;top=0;left=0;bottom=0;right=0;editable=1;overflow=hidden;fontStyle=1;fontSize=14;" parent="NR5pUmCvTBosV-Qdy8rM-38" vertex="1">
          <mxGeometry width="30" height="40" as="geometry">
            <mxRectangle width="30" height="40" as="alternateBounds" />
          </mxGeometry>
        </mxCell>
        <mxCell id="NR5pUmCvTBosV-Qdy8rM-40" value="Спорстмен" style="shape=partialRectangle;connectable=0;fillColor=none;top=0;left=0;bottom=0;right=0;align=left;spacingLeft=6;overflow=hidden;fontSize=14;" parent="NR5pUmCvTBosV-Qdy8rM-38" vertex="1">
          <mxGeometry x="30" width="170" height="40" as="geometry">
            <mxRectangle width="170" height="40" as="alternateBounds" />
          </mxGeometry>
        </mxCell>
        <mxCell id="NR5pUmCvTBosV-Qdy8rM-41" value="Спортсмен" style="shape=table;startSize=30;container=1;collapsible=1;childLayout=tableLayout;fixedRows=1;rowLines=0;fontStyle=1;align=center;resizeLast=1;fontSize=14;" parent="1" vertex="1">
          <mxGeometry x="60" y="-750" width="180" height="250" as="geometry" />
        </mxCell>
        <mxCell id="NR5pUmCvTBosV-Qdy8rM-42" value="" style="shape=partialRectangle;collapsible=0;dropTarget=0;pointerEvents=0;fillColor=none;top=0;left=0;bottom=1;right=0;points=[[0,0.5],[1,0.5]];portConstraint=eastwest;" parent="NR5pUmCvTBosV-Qdy8rM-41" vertex="1">
          <mxGeometry y="30" width="180" height="30" as="geometry" />
        </mxCell>
        <mxCell id="NR5pUmCvTBosV-Qdy8rM-43" value="PK" style="shape=partialRectangle;connectable=0;fillColor=none;top=0;left=0;bottom=0;right=0;fontStyle=1;overflow=hidden;fontSize=14;" parent="NR5pUmCvTBosV-Qdy8rM-42" vertex="1">
          <mxGeometry width="30" height="30" as="geometry">
            <mxRectangle width="30" height="30" as="alternateBounds" />
          </mxGeometry>
        </mxCell>
        <mxCell id="NR5pUmCvTBosV-Qdy8rM-44" value="Спортсмен" style="shape=partialRectangle;connectable=0;fillColor=none;top=0;left=0;bottom=0;right=0;align=left;spacingLeft=6;fontStyle=5;overflow=hidden;fontSize=14;" parent="NR5pUmCvTBosV-Qdy8rM-42" vertex="1">
          <mxGeometry x="30" width="150" height="30" as="geometry">
            <mxRectangle width="150" height="30" as="alternateBounds" />
          </mxGeometry>
        </mxCell>
        <mxCell id="NR5pUmCvTBosV-Qdy8rM-45" value="" style="shape=partialRectangle;collapsible=0;dropTarget=0;pointerEvents=0;fillColor=none;top=0;left=0;bottom=0;right=0;points=[[0,0.5],[1,0.5]];portConstraint=eastwest;" parent="NR5pUmCvTBosV-Qdy8rM-41" vertex="1">
          <mxGeometry y="60" width="180" height="180" as="geometry" />
        </mxCell>
        <mxCell id="NR5pUmCvTBosV-Qdy8rM-46" value="" style="shape=partialRectangle;connectable=0;fillColor=none;top=0;left=0;bottom=0;right=0;editable=1;overflow=hidden;" parent="NR5pUmCvTBosV-Qdy8rM-45" vertex="1">
          <mxGeometry width="30" height="180" as="geometry">
            <mxRectangle width="30" height="180" as="alternateBounds" />
          </mxGeometry>
        </mxCell>
        <mxCell id="NR5pUmCvTBosV-Qdy8rM-47" value="Ім&#39;я&#xa;&#xa;Вік&#xa;&#xa;Адреса" style="shape=partialRectangle;connectable=0;fillColor=none;top=0;left=0;bottom=0;right=0;align=left;spacingLeft=6;overflow=hidden;verticalAlign=top;fontSize=14;" parent="NR5pUmCvTBosV-Qdy8rM-45" vertex="1">
          <mxGeometry x="30" width="150" height="180" as="geometry">
            <mxRectangle width="150" height="180" as="alternateBounds" />
          </mxGeometry>
        </mxCell>
        <mxCell id="3ZObnXZU6xWR4m7c2F_A-26" value="" style="edgeStyle=elbowEdgeStyle;fontSize=12;html=1;endArrow=ERmany;rounded=0;entryX=0;entryY=0.5;entryDx=0;entryDy=0;exitX=1;exitY=0.5;exitDx=0;exitDy=0;" parent="1" source="NR5pUmCvTBosV-Qdy8rM-29" edge="1">
          <mxGeometry width="100" height="100" relative="1" as="geometry">
            <mxPoint x="490" y="-840" as="sourcePoint" />
            <mxPoint x="620" y="-675" as="targetPoint" />
          </mxGeometry>
        </mxCell>
        <mxCell id="4uEgmBKLRGmoXzgZp3Ro-5" value="Експерт" style="shape=table;startSize=30;container=1;collapsible=1;childLayout=tableLayout;fixedRows=1;rowLines=0;fontStyle=1;align=center;resizeLast=1;fontSize=14;" vertex="1" parent="1">
          <mxGeometry x="620" y="-560" width="180" height="150" as="geometry" />
        </mxCell>
        <mxCell id="4uEgmBKLRGmoXzgZp3Ro-6" value="" style="shape=partialRectangle;collapsible=0;dropTarget=0;pointerEvents=0;fillColor=none;top=0;left=0;bottom=1;right=0;points=[[0,0.5],[1,0.5]];portConstraint=eastwest;" vertex="1" parent="4uEgmBKLRGmoXzgZp3Ro-5">
          <mxGeometry y="30" width="180" height="40" as="geometry" />
        </mxCell>
        <mxCell id="4uEgmBKLRGmoXzgZp3Ro-7" value="PK" style="shape=partialRectangle;connectable=0;fillColor=none;top=0;left=0;bottom=0;right=0;fontStyle=1;overflow=hidden;fontSize=14;" vertex="1" parent="4uEgmBKLRGmoXzgZp3Ro-6">
          <mxGeometry width="30" height="40" as="geometry">
            <mxRectangle width="30" height="40" as="alternateBounds" />
          </mxGeometry>
        </mxCell>
        <mxCell id="4uEgmBKLRGmoXzgZp3Ro-8" value="Експерт" style="shape=partialRectangle;connectable=0;fillColor=none;top=0;left=0;bottom=0;right=0;align=center;spacingLeft=6;fontStyle=5;overflow=hidden;fontSize=14;" vertex="1" parent="4uEgmBKLRGmoXzgZp3Ro-6">
          <mxGeometry x="30" width="150" height="40" as="geometry">
            <mxRectangle width="150" height="40" as="alternateBounds" />
          </mxGeometry>
        </mxCell>
        <mxCell id="4uEgmBKLRGmoXzgZp3Ro-9" value="" style="shape=partialRectangle;collapsible=0;dropTarget=0;pointerEvents=0;fillColor=none;top=0;left=0;bottom=0;right=0;points=[[0,0.5],[1,0.5]];portConstraint=eastwest;" vertex="1" parent="4uEgmBKLRGmoXzgZp3Ro-5">
          <mxGeometry y="70" width="180" height="70" as="geometry" />
        </mxCell>
        <mxCell id="4uEgmBKLRGmoXzgZp3Ro-10" value="" style="shape=partialRectangle;connectable=0;fillColor=none;top=0;left=0;bottom=0;right=0;editable=1;overflow=hidden;" vertex="1" parent="4uEgmBKLRGmoXzgZp3Ro-9">
          <mxGeometry width="30" height="70" as="geometry">
            <mxRectangle width="30" height="70" as="alternateBounds" />
          </mxGeometry>
        </mxCell>
        <mxCell id="4uEgmBKLRGmoXzgZp3Ro-11" value="Відповідь на &#xa;Online-повідомлення" style="shape=partialRectangle;connectable=0;fillColor=none;top=0;left=0;bottom=0;right=0;align=center;spacingLeft=6;overflow=hidden;verticalAlign=top;fontSize=14;" vertex="1" parent="4uEgmBKLRGmoXzgZp3Ro-9">
          <mxGeometry x="30" width="150" height="70" as="geometry">
            <mxRectangle width="150" height="70" as="alternateBounds" />
          </mxGeometry>
        </mxCell>
        <mxCell id="4uEgmBKLRGmoXzgZp3Ro-12" value="" style="edgeStyle=elbowEdgeStyle;fontSize=12;html=1;endArrow=ERmany;rounded=0;entryX=0;entryY=0.5;entryDx=0;entryDy=0;" edge="1" parent="1">
          <mxGeometry width="100" height="100" relative="1" as="geometry">
            <mxPoint x="240" y="-720" as="sourcePoint" />
            <mxPoint x="310" y="-665" as="targetPoint" />
          </mxGeometry>
        </mxCell>
        <mxCell id="3ZObnXZU6xWR4m7c2F_A-28" value="" style="edgeStyle=elbowEdgeStyle;fontSize=12;html=1;endArrow=ERmany;rounded=0;exitX=1;exitY=0.5;exitDx=0;exitDy=0;" parent="1" source="3ZObnXZU6xWR4m7c2F_A-23" target="4uEgmBKLRGmoXzgZp3Ro-6" edge="1">
          <mxGeometry width="100" height="100" relative="1" as="geometry">
            <mxPoint x="620" y="-623.6" as="sourcePoint" />
            <mxPoint x="618.02" y="-510.0000000000001" as="targetPoint" />
            <Array as="points">
              <mxPoint x="840" y="-590" />
              <mxPoint x="580" y="-578.6" />
            </Array>
          </mxGeometry>
        </mxCell>
        <mxCell id="3ZObnXZU6xWR4m7c2F_A-1" value="Вибір тренувальної&#xa;програми" style="shape=table;startSize=40;container=1;collapsible=1;childLayout=tableLayout;fixedRows=1;rowLines=0;fontStyle=1;align=center;resizeLast=1;fontSize=14;" parent="1" vertex="1">
          <mxGeometry x="619" y="-820" width="190" height="230" as="geometry" />
        </mxCell>
        <mxCell id="3ZObnXZU6xWR4m7c2F_A-2" value="" style="shape=partialRectangle;collapsible=0;dropTarget=0;pointerEvents=0;fillColor=none;top=0;left=0;bottom=1;right=0;points=[[0,0.5],[1,0.5]];portConstraint=eastwest;" parent="3ZObnXZU6xWR4m7c2F_A-1" vertex="1">
          <mxGeometry y="40" width="190" height="40" as="geometry" />
        </mxCell>
        <mxCell id="3ZObnXZU6xWR4m7c2F_A-3" value="PK" style="shape=partialRectangle;connectable=0;fillColor=none;top=0;left=0;bottom=0;right=0;fontStyle=1;overflow=hidden;fontSize=14;" parent="3ZObnXZU6xWR4m7c2F_A-2" vertex="1">
          <mxGeometry width="30" height="40" as="geometry">
            <mxRectangle width="30" height="40" as="alternateBounds" />
          </mxGeometry>
        </mxCell>
        <mxCell id="3ZObnXZU6xWR4m7c2F_A-4" value="Вибір тренувальної&#xa;програми" style="shape=partialRectangle;connectable=0;fillColor=none;top=0;left=0;bottom=0;right=0;align=left;spacingLeft=6;fontStyle=5;overflow=hidden;fontSize=14;" parent="3ZObnXZU6xWR4m7c2F_A-2" vertex="1">
          <mxGeometry x="30" width="160" height="40" as="geometry">
            <mxRectangle width="160" height="40" as="alternateBounds" />
          </mxGeometry>
        </mxCell>
        <mxCell id="3ZObnXZU6xWR4m7c2F_A-5" value="" style="shape=partialRectangle;collapsible=0;dropTarget=0;pointerEvents=0;fillColor=none;top=0;left=0;bottom=0;right=0;points=[[0,0.5],[1,0.5]];portConstraint=eastwest;" parent="3ZObnXZU6xWR4m7c2F_A-1" vertex="1">
          <mxGeometry y="80" width="190" height="30" as="geometry" />
        </mxCell>
        <mxCell id="3ZObnXZU6xWR4m7c2F_A-6" value="" style="shape=partialRectangle;connectable=0;fillColor=none;top=0;left=0;bottom=0;right=0;editable=1;overflow=hidden;" parent="3ZObnXZU6xWR4m7c2F_A-5" vertex="1">
          <mxGeometry width="30" height="30" as="geometry">
            <mxRectangle width="30" height="30" as="alternateBounds" />
          </mxGeometry>
        </mxCell>
        <mxCell id="3ZObnXZU6xWR4m7c2F_A-7" value="Дата" style="shape=partialRectangle;connectable=0;fillColor=none;top=0;left=0;bottom=0;right=0;align=left;spacingLeft=6;overflow=hidden;fontSize=14;" parent="3ZObnXZU6xWR4m7c2F_A-5" vertex="1">
          <mxGeometry x="30" width="160" height="30" as="geometry">
            <mxRectangle width="160" height="30" as="alternateBounds" />
          </mxGeometry>
        </mxCell>
        <mxCell id="3ZObnXZU6xWR4m7c2F_A-8" value="" style="shape=partialRectangle;collapsible=0;dropTarget=0;pointerEvents=0;fillColor=none;top=0;left=0;bottom=0;right=0;points=[[0,0.5],[1,0.5]];portConstraint=eastwest;" parent="3ZObnXZU6xWR4m7c2F_A-1" vertex="1">
          <mxGeometry y="110" width="190" height="30" as="geometry" />
        </mxCell>
        <mxCell id="3ZObnXZU6xWR4m7c2F_A-9" value="" style="shape=partialRectangle;connectable=0;fillColor=none;top=0;left=0;bottom=0;right=0;editable=1;overflow=hidden;fontStyle=1" parent="3ZObnXZU6xWR4m7c2F_A-8" vertex="1">
          <mxGeometry width="30" height="30" as="geometry">
            <mxRectangle width="30" height="30" as="alternateBounds" />
          </mxGeometry>
        </mxCell>
        <mxCell id="3ZObnXZU6xWR4m7c2F_A-10" value="Тривалість" style="shape=partialRectangle;connectable=0;fillColor=none;top=0;left=0;bottom=0;right=0;align=left;spacingLeft=6;overflow=hidden;fontSize=14;" parent="3ZObnXZU6xWR4m7c2F_A-8" vertex="1">
          <mxGeometry x="30" width="160" height="30" as="geometry">
            <mxRectangle width="160" height="30" as="alternateBounds" />
          </mxGeometry>
        </mxCell>
        <mxCell id="3ZObnXZU6xWR4m7c2F_A-11" value="" style="shape=partialRectangle;collapsible=0;dropTarget=0;pointerEvents=0;fillColor=none;top=0;left=0;bottom=0;right=0;points=[[0,0.5],[1,0.5]];portConstraint=eastwest;" parent="3ZObnXZU6xWR4m7c2F_A-1" vertex="1">
          <mxGeometry y="140" width="190" height="30" as="geometry" />
        </mxCell>
        <mxCell id="3ZObnXZU6xWR4m7c2F_A-12" value="FK" style="shape=partialRectangle;connectable=0;fillColor=none;top=0;left=0;bottom=0;right=0;editable=1;overflow=hidden;fontStyle=1;fontSize=14;" parent="3ZObnXZU6xWR4m7c2F_A-11" vertex="1">
          <mxGeometry width="30" height="30" as="geometry">
            <mxRectangle width="30" height="30" as="alternateBounds" />
          </mxGeometry>
        </mxCell>
        <mxCell id="3ZObnXZU6xWR4m7c2F_A-13" value="Тренувальні програми" style="shape=partialRectangle;connectable=0;fillColor=none;top=0;left=0;bottom=0;right=0;align=left;spacingLeft=6;overflow=hidden;fontSize=14;" parent="3ZObnXZU6xWR4m7c2F_A-11" vertex="1">
          <mxGeometry x="30" width="160" height="30" as="geometry">
            <mxRectangle width="160" height="30" as="alternateBounds" />
          </mxGeometry>
        </mxCell>
        <mxCell id="3ZObnXZU6xWR4m7c2F_A-14" value="" style="shape=partialRectangle;collapsible=0;dropTarget=0;pointerEvents=0;fillColor=none;top=0;left=0;bottom=0;right=0;points=[[0,0.5],[1,0.5]];portConstraint=eastwest;" parent="3ZObnXZU6xWR4m7c2F_A-1" vertex="1">
          <mxGeometry y="170" width="190" height="20" as="geometry" />
        </mxCell>
        <mxCell id="3ZObnXZU6xWR4m7c2F_A-15" value="" style="shape=partialRectangle;connectable=0;fillColor=none;top=0;left=0;bottom=0;right=0;editable=1;overflow=hidden;fontStyle=1" parent="3ZObnXZU6xWR4m7c2F_A-14" vertex="1">
          <mxGeometry width="30" height="20" as="geometry">
            <mxRectangle width="30" height="20" as="alternateBounds" />
          </mxGeometry>
        </mxCell>
        <mxCell id="3ZObnXZU6xWR4m7c2F_A-16" value="" style="shape=partialRectangle;connectable=0;fillColor=none;top=0;left=0;bottom=0;right=0;align=left;spacingLeft=6;overflow=hidden;fontSize=14;" parent="3ZObnXZU6xWR4m7c2F_A-14" vertex="1">
          <mxGeometry x="30" width="160" height="20" as="geometry">
            <mxRectangle width="160" height="20" as="alternateBounds" />
          </mxGeometry>
        </mxCell>
        <mxCell id="3ZObnXZU6xWR4m7c2F_A-23" value="" style="shape=partialRectangle;collapsible=0;dropTarget=0;pointerEvents=0;fillColor=none;top=0;left=0;bottom=0;right=0;points=[[0,0.5],[1,0.5]];portConstraint=eastwest;" parent="3ZObnXZU6xWR4m7c2F_A-1" vertex="1">
          <mxGeometry y="190" width="190" height="40" as="geometry" />
        </mxCell>
        <mxCell id="3ZObnXZU6xWR4m7c2F_A-24" value="FK" style="shape=partialRectangle;connectable=0;fillColor=none;top=0;left=0;bottom=0;right=0;editable=1;overflow=hidden;fontStyle=1;fontSize=14;" parent="3ZObnXZU6xWR4m7c2F_A-23" vertex="1">
          <mxGeometry width="30" height="40" as="geometry">
            <mxRectangle width="30" height="40" as="alternateBounds" />
          </mxGeometry>
        </mxCell>
        <mxCell id="3ZObnXZU6xWR4m7c2F_A-25" value="Експерт" style="shape=partialRectangle;connectable=0;fillColor=none;top=0;left=0;bottom=0;right=0;align=left;spacingLeft=6;overflow=hidden;fontSize=14;" parent="3ZObnXZU6xWR4m7c2F_A-23" vertex="1">
          <mxGeometry x="30" width="160" height="40" as="geometry">
            <mxRectangle width="160" height="40" as="alternateBounds" />
          </mxGeometry>
        </mxCell>
        <mxCell id="4uEgmBKLRGmoXzgZp3Ro-20" value="FK" style="shape=partialRectangle;connectable=0;fillColor=none;top=0;left=0;bottom=0;right=0;editable=1;overflow=hidden;fontStyle=1;fontSize=14;" vertex="1" parent="1">
          <mxGeometry x="620" y="-480" width="30" height="30" as="geometry">
            <mxRectangle width="30" height="40" as="alternateBounds" />
          </mxGeometry>
        </mxCell>
        <mxCell id="4uEgmBKLRGmoXzgZp3Ro-21" value="" style="edgeStyle=elbowEdgeStyle;fontSize=12;html=1;endArrow=ERmany;rounded=0;entryX=0;entryY=0.5;entryDx=0;entryDy=0;" edge="1" parent="1" target="3ZObnXZU6xWR4m7c2F_A-2">
          <mxGeometry width="100" height="100" relative="1" as="geometry">
            <mxPoint x="250" y="-830" as="sourcePoint" />
            <mxPoint x="610" y="-770" as="targetPoint" />
            <Array as="points">
              <mxPoint x="570" y="-820" />
            </Array>
          </mxGeometry>
        </mxCell>
        <mxCell id="4uEgmBKLRGmoXzgZp3Ro-22" value="" style="edgeStyle=elbowEdgeStyle;fontSize=12;html=1;endArrow=ERmany;rounded=0;entryX=0;entryY=0.5;entryDx=0;entryDy=0;" edge="1" parent="1" target="NR5pUmCvTBosV-Qdy8rM-29">
          <mxGeometry width="100" height="100" relative="1" as="geometry">
            <mxPoint x="250" y="-830" as="sourcePoint" />
            <mxPoint x="60" y="-725" as="targetPoint" />
            <Array as="points">
              <mxPoint x="250" y="-800" />
            </Array>
          </mxGeometry>
        </mxCell>
        <mxCell id="4uEgmBKLRGmoXzgZp3Ro-23" value="Відповідь на &#xa;Online-повідомлення" style="shape=table;startSize=35;container=1;collapsible=1;childLayout=tableLayout;fixedRows=1;rowLines=0;fontStyle=1;align=center;resizeLast=1;fontSize=14;" vertex="1" parent="1">
          <mxGeometry x="235" y="-490" width="190" height="165" as="geometry" />
        </mxCell>
        <mxCell id="4uEgmBKLRGmoXzgZp3Ro-24" value="" style="shape=partialRectangle;collapsible=0;dropTarget=0;pointerEvents=0;fillColor=none;top=0;left=0;bottom=1;right=0;points=[[0,0.5],[1,0.5]];portConstraint=eastwest;" vertex="1" parent="4uEgmBKLRGmoXzgZp3Ro-23">
          <mxGeometry y="35" width="190" height="40" as="geometry" />
        </mxCell>
        <mxCell id="4uEgmBKLRGmoXzgZp3Ro-25" value="PK" style="shape=partialRectangle;connectable=0;fillColor=none;top=0;left=0;bottom=0;right=0;fontStyle=1;overflow=hidden;fontSize=14;" vertex="1" parent="4uEgmBKLRGmoXzgZp3Ro-24">
          <mxGeometry width="30" height="40" as="geometry">
            <mxRectangle width="30" height="40" as="alternateBounds" />
          </mxGeometry>
        </mxCell>
        <mxCell id="4uEgmBKLRGmoXzgZp3Ro-26" value="Відповідь на &#xa;Online-повідомлення" style="shape=partialRectangle;connectable=0;fillColor=none;top=0;left=0;bottom=0;right=0;align=left;spacingLeft=6;fontStyle=5;overflow=hidden;fontSize=14;" vertex="1" parent="4uEgmBKLRGmoXzgZp3Ro-24">
          <mxGeometry x="30" width="160" height="40" as="geometry">
            <mxRectangle width="160" height="40" as="alternateBounds" />
          </mxGeometry>
        </mxCell>
        <mxCell id="4uEgmBKLRGmoXzgZp3Ro-27" value="" style="shape=partialRectangle;collapsible=0;dropTarget=0;pointerEvents=0;fillColor=none;top=0;left=0;bottom=0;right=0;points=[[0,0.5],[1,0.5]];portConstraint=eastwest;" vertex="1" parent="4uEgmBKLRGmoXzgZp3Ro-23">
          <mxGeometry y="75" width="190" height="60" as="geometry" />
        </mxCell>
        <mxCell id="4uEgmBKLRGmoXzgZp3Ro-28" value="" style="shape=partialRectangle;connectable=0;fillColor=none;top=0;left=0;bottom=0;right=0;editable=1;overflow=hidden;" vertex="1" parent="4uEgmBKLRGmoXzgZp3Ro-27">
          <mxGeometry width="30" height="60" as="geometry">
            <mxRectangle width="30" height="60" as="alternateBounds" />
          </mxGeometry>
        </mxCell>
        <mxCell id="4uEgmBKLRGmoXzgZp3Ro-29" value="Дата&#xa;&#xa;Текст" style="shape=partialRectangle;connectable=0;fillColor=none;top=0;left=0;bottom=0;right=0;align=left;spacingLeft=6;overflow=hidden;fontSize=14;verticalAlign=top;" vertex="1" parent="4uEgmBKLRGmoXzgZp3Ro-27">
          <mxGeometry x="30" width="160" height="60" as="geometry">
            <mxRectangle width="160" height="60" as="alternateBounds" />
          </mxGeometry>
        </mxCell>
        <mxCell id="4uEgmBKLRGmoXzgZp3Ro-30" value="" style="shape=partialRectangle;collapsible=0;dropTarget=0;pointerEvents=0;fillColor=none;top=0;left=0;bottom=0;right=0;points=[[0,0.5],[1,0.5]];portConstraint=eastwest;" vertex="1" parent="4uEgmBKLRGmoXzgZp3Ro-23">
          <mxGeometry y="135" width="190" height="30" as="geometry" />
        </mxCell>
        <mxCell id="4uEgmBKLRGmoXzgZp3Ro-31" value="FK" style="shape=partialRectangle;connectable=0;fillColor=none;top=0;left=0;bottom=0;right=0;editable=1;overflow=hidden;fontStyle=1;fontSize=14;" vertex="1" parent="4uEgmBKLRGmoXzgZp3Ro-30">
          <mxGeometry width="30" height="30" as="geometry">
            <mxRectangle width="30" height="30" as="alternateBounds" />
          </mxGeometry>
        </mxCell>
        <mxCell id="4uEgmBKLRGmoXzgZp3Ro-32" value="Есперт" style="shape=partialRectangle;connectable=0;fillColor=none;top=0;left=0;bottom=0;right=0;align=left;spacingLeft=6;overflow=hidden;fontSize=14;" vertex="1" parent="4uEgmBKLRGmoXzgZp3Ro-30">
          <mxGeometry x="30" width="160" height="30" as="geometry">
            <mxRectangle width="160" height="30" as="alternateBounds" />
          </mxGeometry>
        </mxCell>
        <mxCell id="4uEgmBKLRGmoXzgZp3Ro-38" value="&lt;b&gt;&lt;font style=&quot;font-size: 14px;&quot;&gt;FK&lt;/font&gt;&lt;/b&gt;" style="text;whiteSpace=wrap;html=1;" vertex="1" parent="1">
          <mxGeometry x="60" y="-590" width="20" height="20" as="geometry" />
        </mxCell>
        <mxCell id="4uEgmBKLRGmoXzgZp3Ro-39" value="&lt;font style=&quot;font-size: 14px;&quot;&gt;Відповідь на &lt;br&gt;Online-повідомлення&lt;br&gt;&lt;br&gt;Сповіщення про&lt;br&gt;тренувальну програму&lt;br&gt;&lt;br&gt;&lt;/font&gt;" style="text;whiteSpace=wrap;html=1;align=left;" vertex="1" parent="1">
          <mxGeometry x="90" y="-590" width="150" height="20" as="geometry" />
        </mxCell>
        <mxCell id="4uEgmBKLRGmoXzgZp3Ro-40" value="" style="edgeStyle=elbowEdgeStyle;fontSize=12;html=1;endArrow=ERmany;rounded=0;entryX=1;entryY=0.5;entryDx=0;entryDy=0;" edge="1" parent="1" source="4uEgmBKLRGmoXzgZp3Ro-24">
          <mxGeometry width="100" height="100" relative="1" as="geometry">
            <mxPoint x="620" y="-690" as="sourcePoint" />
            <mxPoint x="240" y="-587.5" as="targetPoint" />
            <Array as="points">
              <mxPoint x="480" y="-540" />
            </Array>
          </mxGeometry>
        </mxCell>
        <mxCell id="4uEgmBKLRGmoXzgZp3Ro-41" value="&lt;b&gt;&lt;font style=&quot;font-size: 14px;&quot;&gt;FK&lt;/font&gt;&lt;/b&gt;" style="text;whiteSpace=wrap;html=1;" vertex="1" parent="1">
          <mxGeometry x="625" y="-440" width="20" height="20" as="geometry" />
        </mxCell>
        <mxCell id="4uEgmBKLRGmoXzgZp3Ro-45" value="Спортсмен" style="shape=partialRectangle;connectable=0;fillColor=none;top=0;left=0;bottom=0;right=0;align=left;spacingLeft=6;fontStyle=5;overflow=hidden;fontSize=14;" vertex="1" parent="1">
          <mxGeometry x="650" y="-440" width="150" height="30" as="geometry">
            <mxRectangle width="150" height="30" as="alternateBounds" />
          </mxGeometry>
        </mxCell>
        <mxCell id="4uEgmBKLRGmoXzgZp3Ro-46" value="" style="edgeStyle=elbowEdgeStyle;fontSize=12;html=1;endArrow=ERmany;rounded=0;entryX=0;entryY=0.5;entryDx=0;entryDy=0;" edge="1" parent="1" target="NR5pUmCvTBosV-Qdy8rM-42">
          <mxGeometry width="100" height="100" relative="1" as="geometry">
            <mxPoint x="860" y="-870" as="sourcePoint" />
            <mxPoint x="-27" y="-769" as="targetPoint" />
            <Array as="points">
              <mxPoint x="20" y="-800" />
            </Array>
          </mxGeometry>
        </mxCell>
        <mxCell id="4uEgmBKLRGmoXzgZp3Ro-47" value="" style="endArrow=none;html=1;rounded=0;" edge="1" parent="1">
          <mxGeometry width="50" height="50" relative="1" as="geometry">
            <mxPoint x="860" y="-430" as="sourcePoint" />
            <mxPoint x="860" y="-870" as="targetPoint" />
          </mxGeometry>
        </mxCell>
        <mxCell id="4uEgmBKLRGmoXzgZp3Ro-48" value="" style="endArrow=none;html=1;rounded=0;" edge="1" parent="1">
          <mxGeometry width="50" height="50" relative="1" as="geometry">
            <mxPoint x="800" y="-430" as="sourcePoint" />
            <mxPoint x="860" y="-430" as="targetPoint" />
          </mxGeometry>
        </mxCell>
        <mxCell id="4uEgmBKLRGmoXzgZp3Ro-49" value="Сповіщення про&#xa;тренувальну програму" style="shape=table;startSize=40;container=1;collapsible=1;childLayout=tableLayout;fixedRows=1;rowLines=0;fontStyle=1;align=center;resizeLast=1;fontSize=14;" vertex="1" parent="1">
          <mxGeometry x="-10" y="-420" width="200" height="180" as="geometry" />
        </mxCell>
        <mxCell id="4uEgmBKLRGmoXzgZp3Ro-50" value="" style="shape=partialRectangle;collapsible=0;dropTarget=0;pointerEvents=0;fillColor=none;top=0;left=0;bottom=1;right=0;points=[[0,0.5],[1,0.5]];portConstraint=eastwest;" vertex="1" parent="4uEgmBKLRGmoXzgZp3Ro-49">
          <mxGeometry y="40" width="200" height="40" as="geometry" />
        </mxCell>
        <mxCell id="4uEgmBKLRGmoXzgZp3Ro-51" value="PK" style="shape=partialRectangle;connectable=0;fillColor=none;top=0;left=0;bottom=0;right=0;fontStyle=1;overflow=hidden;fontSize=14;" vertex="1" parent="4uEgmBKLRGmoXzgZp3Ro-50">
          <mxGeometry width="30" height="40" as="geometry">
            <mxRectangle width="30" height="40" as="alternateBounds" />
          </mxGeometry>
        </mxCell>
        <mxCell id="4uEgmBKLRGmoXzgZp3Ro-52" value="Сповіщення про&#xa;тренувальну програму" style="shape=partialRectangle;connectable=0;fillColor=none;top=0;left=0;bottom=0;right=0;align=left;spacingLeft=6;fontStyle=5;overflow=hidden;fontSize=14;" vertex="1" parent="4uEgmBKLRGmoXzgZp3Ro-50">
          <mxGeometry x="30" width="170" height="40" as="geometry">
            <mxRectangle width="170" height="40" as="alternateBounds" />
          </mxGeometry>
        </mxCell>
        <mxCell id="4uEgmBKLRGmoXzgZp3Ro-53" value="" style="shape=partialRectangle;collapsible=0;dropTarget=0;pointerEvents=0;fillColor=none;top=0;left=0;bottom=0;right=0;points=[[0,0.5],[1,0.5]];portConstraint=eastwest;" vertex="1" parent="4uEgmBKLRGmoXzgZp3Ro-49">
          <mxGeometry y="80" width="200" height="90" as="geometry" />
        </mxCell>
        <mxCell id="4uEgmBKLRGmoXzgZp3Ro-54" value="" style="shape=partialRectangle;connectable=0;fillColor=none;top=0;left=0;bottom=0;right=0;editable=1;overflow=hidden;" vertex="1" parent="4uEgmBKLRGmoXzgZp3Ro-53">
          <mxGeometry width="30" height="90" as="geometry">
            <mxRectangle width="30" height="90" as="alternateBounds" />
          </mxGeometry>
        </mxCell>
        <mxCell id="4uEgmBKLRGmoXzgZp3Ro-55" value="Дата&#xa;&#xa;Статус&#xa;" style="shape=partialRectangle;connectable=0;fillColor=none;top=0;left=0;bottom=0;right=0;align=left;spacingLeft=6;overflow=hidden;verticalAlign=top;fontSize=14;" vertex="1" parent="4uEgmBKLRGmoXzgZp3Ro-53">
          <mxGeometry x="30" width="170" height="90" as="geometry">
            <mxRectangle width="170" height="90" as="alternateBounds" />
          </mxGeometry>
        </mxCell>
        <mxCell id="4uEgmBKLRGmoXzgZp3Ro-56" value="&lt;b&gt;&lt;font style=&quot;font-size: 14px;&quot;&gt;FK&lt;/font&gt;&lt;/b&gt;" style="text;whiteSpace=wrap;html=1;" vertex="1" parent="1">
          <mxGeometry x="-10" y="-270" width="20" height="20" as="geometry" />
        </mxCell>
        <mxCell id="4uEgmBKLRGmoXzgZp3Ro-57" value="&lt;span style=&quot;font-size: 14px;&quot;&gt;Спортсмен&lt;/span&gt;" style="text;whiteSpace=wrap;html=1;align=left;" vertex="1" parent="1">
          <mxGeometry x="20" y="-270" width="170" height="30" as="geometry" />
        </mxCell>
        <mxCell id="4uEgmBKLRGmoXzgZp3Ro-60" value="&lt;b&gt;&lt;font style=&quot;font-size: 14px;&quot;&gt;FK&lt;/font&gt;&lt;/b&gt;" style="text;whiteSpace=wrap;html=1;" vertex="1" parent="1">
          <mxGeometry x="60" y="-540" width="20" height="30" as="geometry" />
        </mxCell>
        <mxCell id="4uEgmBKLRGmoXzgZp3Ro-61" value="" style="edgeStyle=elbowEdgeStyle;fontSize=12;html=1;endArrow=ERmany;rounded=0;exitX=0;exitY=0.5;exitDx=0;exitDy=0;entryX=0;entryY=0.5;entryDx=0;entryDy=0;" edge="1" parent="1" source="4uEgmBKLRGmoXzgZp3Ro-60" target="4uEgmBKLRGmoXzgZp3Ro-50">
          <mxGeometry width="100" height="100" relative="1" as="geometry">
            <mxPoint x="-55" y="-510" as="sourcePoint" />
            <mxPoint x="-200" y="-440" as="targetPoint" />
            <Array as="points">
              <mxPoint x="-40" y="-430" />
            </Array>
          </mxGeometry>
        </mxCell>
        <mxCell id="4uEgmBKLRGmoXzgZp3Ro-33" value="" style="edgeStyle=elbowEdgeStyle;fontSize=12;html=1;endArrow=ERmany;rounded=0;entryX=0;entryY=0.75;entryDx=0;entryDy=0;exitX=1;exitY=0.5;exitDx=0;exitDy=0;entryPerimeter=0;" edge="1" parent="1" source="4uEgmBKLRGmoXzgZp3Ro-30" target="4uEgmBKLRGmoXzgZp3Ro-6">
          <mxGeometry width="100" height="100" relative="1" as="geometry">
            <mxPoint x="600" y="-500" as="sourcePoint" />
            <mxPoint x="425" y="-400" as="targetPoint" />
            <Array as="points">
              <mxPoint x="590" y="-470" />
            </Array>
          </mxGeometry>
        </mxCell>
      </root>
    </mxGraphModel>
  </diagram>
  <diagram name="Варіант (b)" id="RiiAwfqw73dtremXpdQP">
    <mxGraphModel dx="1108" dy="1582" grid="1" gridSize="10" guides="1" tooltips="1" connect="1" arrows="1" fold="1" page="1" pageScale="1" pageWidth="850" pageHeight="1100" math="0" shadow="0">
      <root>
        <mxCell id="gezteYiFKmW2SbijRGQw-0" />
        <mxCell id="gezteYiFKmW2SbijRGQw-1" parent="gezteYiFKmW2SbijRGQw-0" />
        <mxCell id="gezteYiFKmW2SbijRGQw-2" value="dept" style="shape=table;startSize=30;container=1;collapsible=1;childLayout=tableLayout;fixedRows=1;rowLines=0;fontStyle=1;align=center;resizeLast=1;" vertex="1" parent="gezteYiFKmW2SbijRGQw-1">
          <mxGeometry x="140" y="-780" width="180" height="130" as="geometry" />
        </mxCell>
        <mxCell id="gezteYiFKmW2SbijRGQw-3" value="" style="shape=partialRectangle;collapsible=0;dropTarget=0;pointerEvents=0;fillColor=none;top=0;left=0;bottom=1;right=0;points=[[0,0.5],[1,0.5]];portConstraint=eastwest;" vertex="1" parent="gezteYiFKmW2SbijRGQw-2">
          <mxGeometry y="30" width="180" height="30" as="geometry" />
        </mxCell>
        <mxCell id="gezteYiFKmW2SbijRGQw-4" value="PK" style="shape=partialRectangle;connectable=0;fillColor=none;top=0;left=0;bottom=0;right=0;fontStyle=1;overflow=hidden;" vertex="1" parent="gezteYiFKmW2SbijRGQw-3">
          <mxGeometry width="30" height="30" as="geometry">
            <mxRectangle width="30" height="30" as="alternateBounds" />
          </mxGeometry>
        </mxCell>
        <mxCell id="gezteYiFKmW2SbijRGQw-5" value="deptno" style="shape=partialRectangle;connectable=0;fillColor=none;top=0;left=0;bottom=0;right=0;align=left;spacingLeft=6;fontStyle=5;overflow=hidden;" vertex="1" parent="gezteYiFKmW2SbijRGQw-3">
          <mxGeometry x="30" width="150" height="30" as="geometry">
            <mxRectangle width="150" height="30" as="alternateBounds" />
          </mxGeometry>
        </mxCell>
        <mxCell id="gezteYiFKmW2SbijRGQw-6" value="" style="shape=partialRectangle;collapsible=0;dropTarget=0;pointerEvents=0;fillColor=none;top=0;left=0;bottom=0;right=0;points=[[0,0.5],[1,0.5]];portConstraint=eastwest;" vertex="1" parent="gezteYiFKmW2SbijRGQw-2">
          <mxGeometry y="60" width="180" height="30" as="geometry" />
        </mxCell>
        <mxCell id="gezteYiFKmW2SbijRGQw-7" value="" style="shape=partialRectangle;connectable=0;fillColor=none;top=0;left=0;bottom=0;right=0;editable=1;overflow=hidden;" vertex="1" parent="gezteYiFKmW2SbijRGQw-6">
          <mxGeometry width="30" height="30" as="geometry">
            <mxRectangle width="30" height="30" as="alternateBounds" />
          </mxGeometry>
        </mxCell>
        <mxCell id="gezteYiFKmW2SbijRGQw-8" value="name" style="shape=partialRectangle;connectable=0;fillColor=none;top=0;left=0;bottom=0;right=0;align=left;spacingLeft=6;overflow=hidden;" vertex="1" parent="gezteYiFKmW2SbijRGQw-6">
          <mxGeometry x="30" width="150" height="30" as="geometry">
            <mxRectangle width="150" height="30" as="alternateBounds" />
          </mxGeometry>
        </mxCell>
        <mxCell id="gezteYiFKmW2SbijRGQw-9" value="" style="shape=partialRectangle;collapsible=0;dropTarget=0;pointerEvents=0;fillColor=none;top=0;left=0;bottom=0;right=0;points=[[0,0.5],[1,0.5]];portConstraint=eastwest;" vertex="1" parent="gezteYiFKmW2SbijRGQw-2">
          <mxGeometry y="90" width="180" height="30" as="geometry" />
        </mxCell>
        <mxCell id="gezteYiFKmW2SbijRGQw-10" value="FK" style="shape=partialRectangle;connectable=0;fillColor=none;top=0;left=0;bottom=0;right=0;editable=1;overflow=hidden;fontStyle=1" vertex="1" parent="gezteYiFKmW2SbijRGQw-9">
          <mxGeometry width="30" height="30" as="geometry">
            <mxRectangle width="30" height="30" as="alternateBounds" />
          </mxGeometry>
        </mxCell>
        <mxCell id="gezteYiFKmW2SbijRGQw-11" value="locno" style="shape=partialRectangle;connectable=0;fillColor=none;top=0;left=0;bottom=0;right=0;align=left;spacingLeft=6;overflow=hidden;" vertex="1" parent="gezteYiFKmW2SbijRGQw-9">
          <mxGeometry x="30" width="150" height="30" as="geometry">
            <mxRectangle width="150" height="30" as="alternateBounds" />
          </mxGeometry>
        </mxCell>
        <mxCell id="gezteYiFKmW2SbijRGQw-12" value="loc" style="shape=table;startSize=30;container=1;collapsible=1;childLayout=tableLayout;fixedRows=1;rowLines=0;fontStyle=1;align=center;resizeLast=1;" vertex="1" parent="gezteYiFKmW2SbijRGQw-1">
          <mxGeometry x="140" y="-610" width="180" height="90" as="geometry" />
        </mxCell>
        <mxCell id="gezteYiFKmW2SbijRGQw-13" value="" style="shape=partialRectangle;collapsible=0;dropTarget=0;pointerEvents=0;fillColor=none;top=0;left=0;bottom=1;right=0;points=[[0,0.5],[1,0.5]];portConstraint=eastwest;" vertex="1" parent="gezteYiFKmW2SbijRGQw-12">
          <mxGeometry y="30" width="180" height="30" as="geometry" />
        </mxCell>
        <mxCell id="gezteYiFKmW2SbijRGQw-14" value="PK" style="shape=partialRectangle;connectable=0;fillColor=none;top=0;left=0;bottom=0;right=0;fontStyle=1;overflow=hidden;" vertex="1" parent="gezteYiFKmW2SbijRGQw-13">
          <mxGeometry width="30" height="30" as="geometry">
            <mxRectangle width="30" height="30" as="alternateBounds" />
          </mxGeometry>
        </mxCell>
        <mxCell id="gezteYiFKmW2SbijRGQw-15" value="locno" style="shape=partialRectangle;connectable=0;fillColor=none;top=0;left=0;bottom=0;right=0;align=left;spacingLeft=6;fontStyle=5;overflow=hidden;" vertex="1" parent="gezteYiFKmW2SbijRGQw-13">
          <mxGeometry x="30" width="150" height="30" as="geometry">
            <mxRectangle width="150" height="30" as="alternateBounds" />
          </mxGeometry>
        </mxCell>
        <mxCell id="gezteYiFKmW2SbijRGQw-16" value="" style="shape=partialRectangle;collapsible=0;dropTarget=0;pointerEvents=0;fillColor=none;top=0;left=0;bottom=0;right=0;points=[[0,0.5],[1,0.5]];portConstraint=eastwest;" vertex="1" parent="gezteYiFKmW2SbijRGQw-12">
          <mxGeometry y="60" width="180" height="30" as="geometry" />
        </mxCell>
        <mxCell id="gezteYiFKmW2SbijRGQw-17" value="" style="shape=partialRectangle;connectable=0;fillColor=none;top=0;left=0;bottom=0;right=0;editable=1;overflow=hidden;" vertex="1" parent="gezteYiFKmW2SbijRGQw-16">
          <mxGeometry width="30" height="30" as="geometry">
            <mxRectangle width="30" height="30" as="alternateBounds" />
          </mxGeometry>
        </mxCell>
        <mxCell id="gezteYiFKmW2SbijRGQw-18" value="name" style="shape=partialRectangle;connectable=0;fillColor=none;top=0;left=0;bottom=0;right=0;align=left;spacingLeft=6;overflow=hidden;" vertex="1" parent="gezteYiFKmW2SbijRGQw-16">
          <mxGeometry x="30" width="150" height="30" as="geometry">
            <mxRectangle width="150" height="30" as="alternateBounds" />
          </mxGeometry>
        </mxCell>
        <mxCell id="gezteYiFKmW2SbijRGQw-19" value="" style="edgeStyle=elbowEdgeStyle;fontSize=12;html=1;endArrow=ERmany;rounded=0;entryX=0;entryY=0.5;entryDx=0;entryDy=0;" edge="1" parent="gezteYiFKmW2SbijRGQw-1" source="gezteYiFKmW2SbijRGQw-13" target="gezteYiFKmW2SbijRGQw-9">
          <mxGeometry width="100" height="100" relative="1" as="geometry">
            <mxPoint x="200" y="-630" as="sourcePoint" />
            <mxPoint x="300" y="-730" as="targetPoint" />
            <Array as="points">
              <mxPoint x="100" y="-627" />
            </Array>
          </mxGeometry>
        </mxCell>
        <mxCell id="gezteYiFKmW2SbijRGQw-20" value="emp" style="shape=table;startSize=30;container=1;collapsible=1;childLayout=tableLayout;fixedRows=1;rowLines=0;fontStyle=1;align=center;resizeLast=1;" vertex="1" parent="gezteYiFKmW2SbijRGQw-1">
          <mxGeometry x="380" y="-840" width="195" height="270" as="geometry" />
        </mxCell>
        <mxCell id="gezteYiFKmW2SbijRGQw-21" value="" style="shape=partialRectangle;collapsible=0;dropTarget=0;pointerEvents=0;fillColor=none;top=0;left=0;bottom=1;right=0;points=[[0,0.5],[1,0.5]];portConstraint=eastwest;" vertex="1" parent="gezteYiFKmW2SbijRGQw-20">
          <mxGeometry y="30" width="195" height="30" as="geometry" />
        </mxCell>
        <mxCell id="gezteYiFKmW2SbijRGQw-22" value="PK" style="shape=partialRectangle;connectable=0;fillColor=none;top=0;left=0;bottom=0;right=0;fontStyle=1;overflow=hidden;" vertex="1" parent="gezteYiFKmW2SbijRGQw-21">
          <mxGeometry width="30" height="30" as="geometry">
            <mxRectangle width="30" height="30" as="alternateBounds" />
          </mxGeometry>
        </mxCell>
        <mxCell id="gezteYiFKmW2SbijRGQw-23" value="empno" style="shape=partialRectangle;connectable=0;fillColor=none;top=0;left=0;bottom=0;right=0;align=left;spacingLeft=6;fontStyle=5;overflow=hidden;" vertex="1" parent="gezteYiFKmW2SbijRGQw-21">
          <mxGeometry x="30" width="165" height="30" as="geometry">
            <mxRectangle width="165" height="30" as="alternateBounds" />
          </mxGeometry>
        </mxCell>
        <mxCell id="gezteYiFKmW2SbijRGQw-24" value="" style="shape=partialRectangle;collapsible=0;dropTarget=0;pointerEvents=0;fillColor=none;top=0;left=0;bottom=0;right=0;points=[[0,0.5],[1,0.5]];portConstraint=eastwest;" vertex="1" parent="gezteYiFKmW2SbijRGQw-20">
          <mxGeometry y="60" width="195" height="30" as="geometry" />
        </mxCell>
        <mxCell id="gezteYiFKmW2SbijRGQw-25" value="" style="shape=partialRectangle;connectable=0;fillColor=none;top=0;left=0;bottom=0;right=0;editable=1;overflow=hidden;" vertex="1" parent="gezteYiFKmW2SbijRGQw-24">
          <mxGeometry width="30" height="30" as="geometry">
            <mxRectangle width="30" height="30" as="alternateBounds" />
          </mxGeometry>
        </mxCell>
        <mxCell id="gezteYiFKmW2SbijRGQw-26" value="ename" style="shape=partialRectangle;connectable=0;fillColor=none;top=0;left=0;bottom=0;right=0;align=left;spacingLeft=6;overflow=hidden;" vertex="1" parent="gezteYiFKmW2SbijRGQw-24">
          <mxGeometry x="30" width="165" height="30" as="geometry">
            <mxRectangle width="165" height="30" as="alternateBounds" />
          </mxGeometry>
        </mxCell>
        <mxCell id="gezteYiFKmW2SbijRGQw-27" value="" style="shape=partialRectangle;collapsible=0;dropTarget=0;pointerEvents=0;fillColor=none;top=0;left=0;bottom=0;right=0;points=[[0,0.5],[1,0.5]];portConstraint=eastwest;" vertex="1" parent="gezteYiFKmW2SbijRGQw-20">
          <mxGeometry y="90" width="195" height="30" as="geometry" />
        </mxCell>
        <mxCell id="gezteYiFKmW2SbijRGQw-28" value="" style="shape=partialRectangle;connectable=0;fillColor=none;top=0;left=0;bottom=0;right=0;editable=1;overflow=hidden;fontStyle=1" vertex="1" parent="gezteYiFKmW2SbijRGQw-27">
          <mxGeometry width="30" height="30" as="geometry">
            <mxRectangle width="30" height="30" as="alternateBounds" />
          </mxGeometry>
        </mxCell>
        <mxCell id="gezteYiFKmW2SbijRGQw-29" value="job" style="shape=partialRectangle;connectable=0;fillColor=none;top=0;left=0;bottom=0;right=0;align=left;spacingLeft=6;overflow=hidden;" vertex="1" parent="gezteYiFKmW2SbijRGQw-27">
          <mxGeometry x="30" width="165" height="30" as="geometry">
            <mxRectangle width="165" height="30" as="alternateBounds" />
          </mxGeometry>
        </mxCell>
        <mxCell id="gezteYiFKmW2SbijRGQw-33" value="" style="shape=partialRectangle;collapsible=0;dropTarget=0;pointerEvents=0;fillColor=none;top=0;left=0;bottom=0;right=0;points=[[0,0.5],[1,0.5]];portConstraint=eastwest;" vertex="1" parent="gezteYiFKmW2SbijRGQw-20">
          <mxGeometry y="120" width="195" height="30" as="geometry" />
        </mxCell>
        <mxCell id="gezteYiFKmW2SbijRGQw-34" value="" style="shape=partialRectangle;connectable=0;fillColor=none;top=0;left=0;bottom=0;right=0;editable=1;overflow=hidden;fontStyle=1" vertex="1" parent="gezteYiFKmW2SbijRGQw-33">
          <mxGeometry width="30" height="30" as="geometry">
            <mxRectangle width="30" height="30" as="alternateBounds" />
          </mxGeometry>
        </mxCell>
        <mxCell id="gezteYiFKmW2SbijRGQw-35" value="hiredate" style="shape=partialRectangle;connectable=0;fillColor=none;top=0;left=0;bottom=0;right=0;align=left;spacingLeft=6;overflow=hidden;" vertex="1" parent="gezteYiFKmW2SbijRGQw-33">
          <mxGeometry x="30" width="165" height="30" as="geometry">
            <mxRectangle width="165" height="30" as="alternateBounds" />
          </mxGeometry>
        </mxCell>
        <mxCell id="gezteYiFKmW2SbijRGQw-36" value="" style="shape=partialRectangle;collapsible=0;dropTarget=0;pointerEvents=0;fillColor=none;top=0;left=0;bottom=0;right=0;points=[[0,0.5],[1,0.5]];portConstraint=eastwest;" vertex="1" parent="gezteYiFKmW2SbijRGQw-20">
          <mxGeometry y="150" width="195" height="30" as="geometry" />
        </mxCell>
        <mxCell id="gezteYiFKmW2SbijRGQw-37" value="" style="shape=partialRectangle;connectable=0;fillColor=none;top=0;left=0;bottom=0;right=0;editable=1;overflow=hidden;fontStyle=1" vertex="1" parent="gezteYiFKmW2SbijRGQw-36">
          <mxGeometry width="30" height="30" as="geometry">
            <mxRectangle width="30" height="30" as="alternateBounds" />
          </mxGeometry>
        </mxCell>
        <mxCell id="gezteYiFKmW2SbijRGQw-38" value="sal" style="shape=partialRectangle;connectable=0;fillColor=none;top=0;left=0;bottom=0;right=0;align=left;spacingLeft=6;overflow=hidden;" vertex="1" parent="gezteYiFKmW2SbijRGQw-36">
          <mxGeometry x="30" width="165" height="30" as="geometry">
            <mxRectangle width="165" height="30" as="alternateBounds" />
          </mxGeometry>
        </mxCell>
        <mxCell id="gezteYiFKmW2SbijRGQw-39" value="" style="shape=partialRectangle;collapsible=0;dropTarget=0;pointerEvents=0;fillColor=none;top=0;left=0;bottom=0;right=0;points=[[0,0.5],[1,0.5]];portConstraint=eastwest;" vertex="1" parent="gezteYiFKmW2SbijRGQw-20">
          <mxGeometry y="180" width="195" height="30" as="geometry" />
        </mxCell>
        <mxCell id="gezteYiFKmW2SbijRGQw-40" value="" style="shape=partialRectangle;connectable=0;fillColor=none;top=0;left=0;bottom=0;right=0;editable=1;overflow=hidden;fontStyle=1" vertex="1" parent="gezteYiFKmW2SbijRGQw-39">
          <mxGeometry width="30" height="30" as="geometry">
            <mxRectangle width="30" height="30" as="alternateBounds" />
          </mxGeometry>
        </mxCell>
        <mxCell id="gezteYiFKmW2SbijRGQw-41" value="com" style="shape=partialRectangle;connectable=0;fillColor=none;top=0;left=0;bottom=0;right=0;align=left;spacingLeft=6;overflow=hidden;" vertex="1" parent="gezteYiFKmW2SbijRGQw-39">
          <mxGeometry x="30" width="165" height="30" as="geometry">
            <mxRectangle width="165" height="30" as="alternateBounds" />
          </mxGeometry>
        </mxCell>
        <mxCell id="gezteYiFKmW2SbijRGQw-42" value="" style="shape=partialRectangle;collapsible=0;dropTarget=0;pointerEvents=0;fillColor=none;top=0;left=0;bottom=0;right=0;points=[[0,0.5],[1,0.5]];portConstraint=eastwest;" vertex="1" parent="gezteYiFKmW2SbijRGQw-20">
          <mxGeometry y="210" width="195" height="30" as="geometry" />
        </mxCell>
        <mxCell id="gezteYiFKmW2SbijRGQw-43" value="FK" style="shape=partialRectangle;connectable=0;fillColor=none;top=0;left=0;bottom=0;right=0;editable=1;overflow=hidden;fontStyle=1" vertex="1" parent="gezteYiFKmW2SbijRGQw-42">
          <mxGeometry width="30" height="30" as="geometry">
            <mxRectangle width="30" height="30" as="alternateBounds" />
          </mxGeometry>
        </mxCell>
        <mxCell id="gezteYiFKmW2SbijRGQw-44" value="deptno" style="shape=partialRectangle;connectable=0;fillColor=none;top=0;left=0;bottom=0;right=0;align=left;spacingLeft=6;overflow=hidden;" vertex="1" parent="gezteYiFKmW2SbijRGQw-42">
          <mxGeometry x="30" width="165" height="30" as="geometry">
            <mxRectangle width="165" height="30" as="alternateBounds" />
          </mxGeometry>
        </mxCell>
        <mxCell id="9w5AvYkcZSZDb7R4mJsS-26" value="" style="shape=partialRectangle;collapsible=0;dropTarget=0;pointerEvents=0;fillColor=none;top=0;left=0;bottom=0;right=0;points=[[0,0.5],[1,0.5]];portConstraint=eastwest;" vertex="1" parent="gezteYiFKmW2SbijRGQw-20">
          <mxGeometry y="240" width="195" height="30" as="geometry" />
        </mxCell>
        <mxCell id="9w5AvYkcZSZDb7R4mJsS-27" value="FK" style="shape=partialRectangle;connectable=0;fillColor=none;top=0;left=0;bottom=0;right=0;editable=1;overflow=hidden;fontStyle=1" vertex="1" parent="9w5AvYkcZSZDb7R4mJsS-26">
          <mxGeometry width="30" height="30" as="geometry">
            <mxRectangle width="30" height="30" as="alternateBounds" />
          </mxGeometry>
        </mxCell>
        <mxCell id="9w5AvYkcZSZDb7R4mJsS-28" value="mgrno" style="shape=partialRectangle;connectable=0;fillColor=none;top=0;left=0;bottom=0;right=0;align=left;spacingLeft=6;overflow=hidden;" vertex="1" parent="9w5AvYkcZSZDb7R4mJsS-26">
          <mxGeometry x="30" width="165" height="30" as="geometry">
            <mxRectangle width="165" height="30" as="alternateBounds" />
          </mxGeometry>
        </mxCell>
        <mxCell id="gezteYiFKmW2SbijRGQw-46" value="" style="edgeStyle=elbowEdgeStyle;fontSize=12;html=1;endArrow=ERmany;rounded=0;entryX=0;entryY=0.5;entryDx=0;entryDy=0;exitX=1;exitY=0.5;exitDx=0;exitDy=0;" edge="1" parent="gezteYiFKmW2SbijRGQw-1" source="gezteYiFKmW2SbijRGQw-3" target="gezteYiFKmW2SbijRGQw-42">
          <mxGeometry width="100" height="100" relative="1" as="geometry">
            <mxPoint x="230" y="-550" as="sourcePoint" />
            <mxPoint x="300" y="-530" as="targetPoint" />
            <Array as="points">
              <mxPoint x="360" y="-680" />
            </Array>
          </mxGeometry>
        </mxCell>
        <mxCell id="9w5AvYkcZSZDb7R4mJsS-0" value="mgr" style="shape=table;startSize=30;container=1;collapsible=1;childLayout=tableLayout;fixedRows=1;rowLines=0;fontStyle=1;align=center;resizeLast=1;" vertex="1" parent="gezteYiFKmW2SbijRGQw-1">
          <mxGeometry x="620" y="-760" width="180" height="240" as="geometry" />
        </mxCell>
        <mxCell id="9w5AvYkcZSZDb7R4mJsS-1" value="" style="shape=partialRectangle;collapsible=0;dropTarget=0;pointerEvents=0;fillColor=none;top=0;left=0;bottom=1;right=0;points=[[0,0.5],[1,0.5]];portConstraint=eastwest;" vertex="1" parent="9w5AvYkcZSZDb7R4mJsS-0">
          <mxGeometry y="30" width="180" height="30" as="geometry" />
        </mxCell>
        <mxCell id="9w5AvYkcZSZDb7R4mJsS-2" value="PK" style="shape=partialRectangle;connectable=0;fillColor=none;top=0;left=0;bottom=0;right=0;fontStyle=1;overflow=hidden;" vertex="1" parent="9w5AvYkcZSZDb7R4mJsS-1">
          <mxGeometry width="30" height="30" as="geometry">
            <mxRectangle width="30" height="30" as="alternateBounds" />
          </mxGeometry>
        </mxCell>
        <mxCell id="9w5AvYkcZSZDb7R4mJsS-3" value="mgrno" style="shape=partialRectangle;connectable=0;fillColor=none;top=0;left=0;bottom=0;right=0;align=left;spacingLeft=6;fontStyle=5;overflow=hidden;" vertex="1" parent="9w5AvYkcZSZDb7R4mJsS-1">
          <mxGeometry x="30" width="150" height="30" as="geometry">
            <mxRectangle width="150" height="30" as="alternateBounds" />
          </mxGeometry>
        </mxCell>
        <mxCell id="9w5AvYkcZSZDb7R4mJsS-4" value="" style="shape=partialRectangle;collapsible=0;dropTarget=0;pointerEvents=0;fillColor=none;top=0;left=0;bottom=0;right=0;points=[[0,0.5],[1,0.5]];portConstraint=eastwest;" vertex="1" parent="9w5AvYkcZSZDb7R4mJsS-0">
          <mxGeometry y="60" width="180" height="30" as="geometry" />
        </mxCell>
        <mxCell id="9w5AvYkcZSZDb7R4mJsS-5" value="" style="shape=partialRectangle;connectable=0;fillColor=none;top=0;left=0;bottom=0;right=0;editable=1;overflow=hidden;" vertex="1" parent="9w5AvYkcZSZDb7R4mJsS-4">
          <mxGeometry width="30" height="30" as="geometry">
            <mxRectangle width="30" height="30" as="alternateBounds" />
          </mxGeometry>
        </mxCell>
        <mxCell id="9w5AvYkcZSZDb7R4mJsS-6" value="ename" style="shape=partialRectangle;connectable=0;fillColor=none;top=0;left=0;bottom=0;right=0;align=left;spacingLeft=6;overflow=hidden;" vertex="1" parent="9w5AvYkcZSZDb7R4mJsS-4">
          <mxGeometry x="30" width="150" height="30" as="geometry">
            <mxRectangle width="150" height="30" as="alternateBounds" />
          </mxGeometry>
        </mxCell>
        <mxCell id="9w5AvYkcZSZDb7R4mJsS-7" value="" style="shape=partialRectangle;collapsible=0;dropTarget=0;pointerEvents=0;fillColor=none;top=0;left=0;bottom=0;right=0;points=[[0,0.5],[1,0.5]];portConstraint=eastwest;" vertex="1" parent="9w5AvYkcZSZDb7R4mJsS-0">
          <mxGeometry y="90" width="180" height="30" as="geometry" />
        </mxCell>
        <mxCell id="9w5AvYkcZSZDb7R4mJsS-8" value="" style="shape=partialRectangle;connectable=0;fillColor=none;top=0;left=0;bottom=0;right=0;editable=1;overflow=hidden;fontStyle=1" vertex="1" parent="9w5AvYkcZSZDb7R4mJsS-7">
          <mxGeometry width="30" height="30" as="geometry">
            <mxRectangle width="30" height="30" as="alternateBounds" />
          </mxGeometry>
        </mxCell>
        <mxCell id="9w5AvYkcZSZDb7R4mJsS-9" value="job" style="shape=partialRectangle;connectable=0;fillColor=none;top=0;left=0;bottom=0;right=0;align=left;spacingLeft=6;overflow=hidden;" vertex="1" parent="9w5AvYkcZSZDb7R4mJsS-7">
          <mxGeometry x="30" width="150" height="30" as="geometry">
            <mxRectangle width="150" height="30" as="alternateBounds" />
          </mxGeometry>
        </mxCell>
        <mxCell id="9w5AvYkcZSZDb7R4mJsS-13" value="" style="shape=partialRectangle;collapsible=0;dropTarget=0;pointerEvents=0;fillColor=none;top=0;left=0;bottom=0;right=0;points=[[0,0.5],[1,0.5]];portConstraint=eastwest;" vertex="1" parent="9w5AvYkcZSZDb7R4mJsS-0">
          <mxGeometry y="120" width="180" height="30" as="geometry" />
        </mxCell>
        <mxCell id="9w5AvYkcZSZDb7R4mJsS-14" value="" style="shape=partialRectangle;connectable=0;fillColor=none;top=0;left=0;bottom=0;right=0;editable=1;overflow=hidden;fontStyle=1" vertex="1" parent="9w5AvYkcZSZDb7R4mJsS-13">
          <mxGeometry width="30" height="30" as="geometry">
            <mxRectangle width="30" height="30" as="alternateBounds" />
          </mxGeometry>
        </mxCell>
        <mxCell id="9w5AvYkcZSZDb7R4mJsS-15" value="hiredate" style="shape=partialRectangle;connectable=0;fillColor=none;top=0;left=0;bottom=0;right=0;align=left;spacingLeft=6;overflow=hidden;" vertex="1" parent="9w5AvYkcZSZDb7R4mJsS-13">
          <mxGeometry x="30" width="150" height="30" as="geometry">
            <mxRectangle width="150" height="30" as="alternateBounds" />
          </mxGeometry>
        </mxCell>
        <mxCell id="9w5AvYkcZSZDb7R4mJsS-16" value="" style="shape=partialRectangle;collapsible=0;dropTarget=0;pointerEvents=0;fillColor=none;top=0;left=0;bottom=0;right=0;points=[[0,0.5],[1,0.5]];portConstraint=eastwest;" vertex="1" parent="9w5AvYkcZSZDb7R4mJsS-0">
          <mxGeometry y="150" width="180" height="30" as="geometry" />
        </mxCell>
        <mxCell id="9w5AvYkcZSZDb7R4mJsS-17" value="" style="shape=partialRectangle;connectable=0;fillColor=none;top=0;left=0;bottom=0;right=0;editable=1;overflow=hidden;fontStyle=1" vertex="1" parent="9w5AvYkcZSZDb7R4mJsS-16">
          <mxGeometry width="30" height="30" as="geometry">
            <mxRectangle width="30" height="30" as="alternateBounds" />
          </mxGeometry>
        </mxCell>
        <mxCell id="9w5AvYkcZSZDb7R4mJsS-18" value="sal" style="shape=partialRectangle;connectable=0;fillColor=none;top=0;left=0;bottom=0;right=0;align=left;spacingLeft=6;overflow=hidden;" vertex="1" parent="9w5AvYkcZSZDb7R4mJsS-16">
          <mxGeometry x="30" width="150" height="30" as="geometry">
            <mxRectangle width="150" height="30" as="alternateBounds" />
          </mxGeometry>
        </mxCell>
        <mxCell id="9w5AvYkcZSZDb7R4mJsS-19" value="" style="shape=partialRectangle;collapsible=0;dropTarget=0;pointerEvents=0;fillColor=none;top=0;left=0;bottom=0;right=0;points=[[0,0.5],[1,0.5]];portConstraint=eastwest;" vertex="1" parent="9w5AvYkcZSZDb7R4mJsS-0">
          <mxGeometry y="180" width="180" height="30" as="geometry" />
        </mxCell>
        <mxCell id="9w5AvYkcZSZDb7R4mJsS-20" value="" style="shape=partialRectangle;connectable=0;fillColor=none;top=0;left=0;bottom=0;right=0;editable=1;overflow=hidden;fontStyle=1" vertex="1" parent="9w5AvYkcZSZDb7R4mJsS-19">
          <mxGeometry width="30" height="30" as="geometry">
            <mxRectangle width="30" height="30" as="alternateBounds" />
          </mxGeometry>
        </mxCell>
        <mxCell id="9w5AvYkcZSZDb7R4mJsS-21" value="com" style="shape=partialRectangle;connectable=0;fillColor=none;top=0;left=0;bottom=0;right=0;align=left;spacingLeft=6;overflow=hidden;" vertex="1" parent="9w5AvYkcZSZDb7R4mJsS-19">
          <mxGeometry x="30" width="150" height="30" as="geometry">
            <mxRectangle width="150" height="30" as="alternateBounds" />
          </mxGeometry>
        </mxCell>
        <mxCell id="9w5AvYkcZSZDb7R4mJsS-22" value="" style="shape=partialRectangle;collapsible=0;dropTarget=0;pointerEvents=0;fillColor=none;top=0;left=0;bottom=0;right=0;points=[[0,0.5],[1,0.5]];portConstraint=eastwest;" vertex="1" parent="9w5AvYkcZSZDb7R4mJsS-0">
          <mxGeometry y="210" width="180" height="30" as="geometry" />
        </mxCell>
        <mxCell id="9w5AvYkcZSZDb7R4mJsS-23" value="FK" style="shape=partialRectangle;connectable=0;fillColor=none;top=0;left=0;bottom=0;right=0;editable=1;overflow=hidden;fontStyle=1" vertex="1" parent="9w5AvYkcZSZDb7R4mJsS-22">
          <mxGeometry width="30" height="30" as="geometry">
            <mxRectangle width="30" height="30" as="alternateBounds" />
          </mxGeometry>
        </mxCell>
        <mxCell id="9w5AvYkcZSZDb7R4mJsS-24" value="deptno" style="shape=partialRectangle;connectable=0;fillColor=none;top=0;left=0;bottom=0;right=0;align=left;spacingLeft=6;overflow=hidden;" vertex="1" parent="9w5AvYkcZSZDb7R4mJsS-22">
          <mxGeometry x="30" width="150" height="30" as="geometry">
            <mxRectangle width="150" height="30" as="alternateBounds" />
          </mxGeometry>
        </mxCell>
        <mxCell id="9w5AvYkcZSZDb7R4mJsS-25" value="" style="edgeStyle=elbowEdgeStyle;fontSize=12;html=1;endArrow=ERmany;rounded=0;exitX=1;exitY=0.5;exitDx=0;exitDy=0;entryX=0;entryY=0.5;entryDx=0;entryDy=0;" edge="1" parent="gezteYiFKmW2SbijRGQw-1" source="gezteYiFKmW2SbijRGQw-3" target="9w5AvYkcZSZDb7R4mJsS-22">
          <mxGeometry width="100" height="100" relative="1" as="geometry">
            <mxPoint x="390" y="-450" as="sourcePoint" />
            <mxPoint x="660" y="-530" as="targetPoint" />
            <Array as="points">
              <mxPoint x="340" y="-630" />
              <mxPoint x="350" y="-620" />
              <mxPoint x="350" y="-510" />
              <mxPoint x="410" y="-420" />
            </Array>
          </mxGeometry>
        </mxCell>
        <mxCell id="9w5AvYkcZSZDb7R4mJsS-29" value="" style="edgeStyle=elbowEdgeStyle;fontSize=12;html=1;endArrow=ERmany;rounded=0;exitX=0;exitY=0.5;exitDx=0;exitDy=0;entryX=1.015;entryY=0.3;entryDx=0;entryDy=0;entryPerimeter=0;" edge="1" parent="gezteYiFKmW2SbijRGQw-1" source="9w5AvYkcZSZDb7R4mJsS-1" target="9w5AvYkcZSZDb7R4mJsS-26">
          <mxGeometry width="100" height="100" relative="1" as="geometry">
            <mxPoint x="330" y="-725" as="sourcePoint" />
            <mxPoint x="450" y="-605" as="targetPoint" />
            <Array as="points">
              <mxPoint x="600" y="-650" />
            </Array>
          </mxGeometry>
        </mxCell>
      </root>
    </mxGraphModel>
  </diagram>
  <diagram name="Варіант (c)" id="rvxvsrA2Mo_Z0yQ4r2bU">
    <mxGraphModel dx="1108" dy="1582" grid="1" gridSize="10" guides="1" tooltips="1" connect="1" arrows="1" fold="1" page="1" pageScale="1" pageWidth="850" pageHeight="1100" math="0" shadow="0">
      <root>
        <mxCell id="tsf6QHsWhYLNX8EQ_W9M-0" />
        <mxCell id="tsf6QHsWhYLNX8EQ_W9M-1" parent="tsf6QHsWhYLNX8EQ_W9M-0" />
        <mxCell id="RIfUzzzm_-wpYz4NOER9-0" value="dept" style="shape=table;startSize=30;container=1;collapsible=1;childLayout=tableLayout;fixedRows=1;rowLines=0;fontStyle=1;align=center;resizeLast=1;" vertex="1" parent="tsf6QHsWhYLNX8EQ_W9M-1">
          <mxGeometry x="340" y="-709" width="180" height="130" as="geometry" />
        </mxCell>
        <mxCell id="RIfUzzzm_-wpYz4NOER9-1" value="" style="shape=partialRectangle;collapsible=0;dropTarget=0;pointerEvents=0;fillColor=none;top=0;left=0;bottom=1;right=0;points=[[0,0.5],[1,0.5]];portConstraint=eastwest;" vertex="1" parent="RIfUzzzm_-wpYz4NOER9-0">
          <mxGeometry y="30" width="180" height="30" as="geometry" />
        </mxCell>
        <mxCell id="RIfUzzzm_-wpYz4NOER9-2" value="PK" style="shape=partialRectangle;connectable=0;fillColor=none;top=0;left=0;bottom=0;right=0;fontStyle=1;overflow=hidden;" vertex="1" parent="RIfUzzzm_-wpYz4NOER9-1">
          <mxGeometry width="30" height="30" as="geometry">
            <mxRectangle width="30" height="30" as="alternateBounds" />
          </mxGeometry>
        </mxCell>
        <mxCell id="RIfUzzzm_-wpYz4NOER9-3" value="deptno" style="shape=partialRectangle;connectable=0;fillColor=none;top=0;left=0;bottom=0;right=0;align=left;spacingLeft=6;fontStyle=5;overflow=hidden;" vertex="1" parent="RIfUzzzm_-wpYz4NOER9-1">
          <mxGeometry x="30" width="150" height="30" as="geometry">
            <mxRectangle width="150" height="30" as="alternateBounds" />
          </mxGeometry>
        </mxCell>
        <mxCell id="RIfUzzzm_-wpYz4NOER9-4" value="" style="shape=partialRectangle;collapsible=0;dropTarget=0;pointerEvents=0;fillColor=none;top=0;left=0;bottom=0;right=0;points=[[0,0.5],[1,0.5]];portConstraint=eastwest;" vertex="1" parent="RIfUzzzm_-wpYz4NOER9-0">
          <mxGeometry y="60" width="180" height="30" as="geometry" />
        </mxCell>
        <mxCell id="RIfUzzzm_-wpYz4NOER9-5" value="" style="shape=partialRectangle;connectable=0;fillColor=none;top=0;left=0;bottom=0;right=0;editable=1;overflow=hidden;" vertex="1" parent="RIfUzzzm_-wpYz4NOER9-4">
          <mxGeometry width="30" height="30" as="geometry">
            <mxRectangle width="30" height="30" as="alternateBounds" />
          </mxGeometry>
        </mxCell>
        <mxCell id="RIfUzzzm_-wpYz4NOER9-6" value="name" style="shape=partialRectangle;connectable=0;fillColor=none;top=0;left=0;bottom=0;right=0;align=left;spacingLeft=6;overflow=hidden;" vertex="1" parent="RIfUzzzm_-wpYz4NOER9-4">
          <mxGeometry x="30" width="150" height="30" as="geometry">
            <mxRectangle width="150" height="30" as="alternateBounds" />
          </mxGeometry>
        </mxCell>
        <mxCell id="RIfUzzzm_-wpYz4NOER9-7" value="" style="shape=partialRectangle;collapsible=0;dropTarget=0;pointerEvents=0;fillColor=none;top=0;left=0;bottom=0;right=0;points=[[0,0.5],[1,0.5]];portConstraint=eastwest;" vertex="1" parent="RIfUzzzm_-wpYz4NOER9-0">
          <mxGeometry y="90" width="180" height="30" as="geometry" />
        </mxCell>
        <mxCell id="RIfUzzzm_-wpYz4NOER9-8" value="FK" style="shape=partialRectangle;connectable=0;fillColor=none;top=0;left=0;bottom=0;right=0;editable=1;overflow=hidden;fontStyle=1" vertex="1" parent="RIfUzzzm_-wpYz4NOER9-7">
          <mxGeometry width="30" height="30" as="geometry">
            <mxRectangle width="30" height="30" as="alternateBounds" />
          </mxGeometry>
        </mxCell>
        <mxCell id="RIfUzzzm_-wpYz4NOER9-9" value="locno" style="shape=partialRectangle;connectable=0;fillColor=none;top=0;left=0;bottom=0;right=0;align=left;spacingLeft=6;overflow=hidden;" vertex="1" parent="RIfUzzzm_-wpYz4NOER9-7">
          <mxGeometry x="30" width="150" height="30" as="geometry">
            <mxRectangle width="150" height="30" as="alternateBounds" />
          </mxGeometry>
        </mxCell>
        <mxCell id="RIfUzzzm_-wpYz4NOER9-10" value="loc" style="shape=table;startSize=30;container=1;collapsible=1;childLayout=tableLayout;fixedRows=1;rowLines=0;fontStyle=1;align=center;resizeLast=1;" vertex="1" parent="tsf6QHsWhYLNX8EQ_W9M-1">
          <mxGeometry x="340" y="-520" width="180" height="90" as="geometry" />
        </mxCell>
        <mxCell id="RIfUzzzm_-wpYz4NOER9-11" value="" style="shape=partialRectangle;collapsible=0;dropTarget=0;pointerEvents=0;fillColor=none;top=0;left=0;bottom=1;right=0;points=[[0,0.5],[1,0.5]];portConstraint=eastwest;" vertex="1" parent="RIfUzzzm_-wpYz4NOER9-10">
          <mxGeometry y="30" width="180" height="30" as="geometry" />
        </mxCell>
        <mxCell id="RIfUzzzm_-wpYz4NOER9-12" value="PK" style="shape=partialRectangle;connectable=0;fillColor=none;top=0;left=0;bottom=0;right=0;fontStyle=1;overflow=hidden;" vertex="1" parent="RIfUzzzm_-wpYz4NOER9-11">
          <mxGeometry width="30" height="30" as="geometry">
            <mxRectangle width="30" height="30" as="alternateBounds" />
          </mxGeometry>
        </mxCell>
        <mxCell id="RIfUzzzm_-wpYz4NOER9-13" value="locno" style="shape=partialRectangle;connectable=0;fillColor=none;top=0;left=0;bottom=0;right=0;align=left;spacingLeft=6;fontStyle=5;overflow=hidden;" vertex="1" parent="RIfUzzzm_-wpYz4NOER9-11">
          <mxGeometry x="30" width="150" height="30" as="geometry">
            <mxRectangle width="150" height="30" as="alternateBounds" />
          </mxGeometry>
        </mxCell>
        <mxCell id="RIfUzzzm_-wpYz4NOER9-14" value="" style="shape=partialRectangle;collapsible=0;dropTarget=0;pointerEvents=0;fillColor=none;top=0;left=0;bottom=0;right=0;points=[[0,0.5],[1,0.5]];portConstraint=eastwest;" vertex="1" parent="RIfUzzzm_-wpYz4NOER9-10">
          <mxGeometry y="60" width="180" height="30" as="geometry" />
        </mxCell>
        <mxCell id="RIfUzzzm_-wpYz4NOER9-15" value="" style="shape=partialRectangle;connectable=0;fillColor=none;top=0;left=0;bottom=0;right=0;editable=1;overflow=hidden;" vertex="1" parent="RIfUzzzm_-wpYz4NOER9-14">
          <mxGeometry width="30" height="30" as="geometry">
            <mxRectangle width="30" height="30" as="alternateBounds" />
          </mxGeometry>
        </mxCell>
        <mxCell id="RIfUzzzm_-wpYz4NOER9-16" value="name" style="shape=partialRectangle;connectable=0;fillColor=none;top=0;left=0;bottom=0;right=0;align=left;spacingLeft=6;overflow=hidden;" vertex="1" parent="RIfUzzzm_-wpYz4NOER9-14">
          <mxGeometry x="30" width="150" height="30" as="geometry">
            <mxRectangle width="150" height="30" as="alternateBounds" />
          </mxGeometry>
        </mxCell>
        <mxCell id="RIfUzzzm_-wpYz4NOER9-17" value="" style="edgeStyle=elbowEdgeStyle;fontSize=12;html=1;endArrow=ERmany;rounded=0;entryX=0;entryY=0.5;entryDx=0;entryDy=0;" edge="1" parent="tsf6QHsWhYLNX8EQ_W9M-1" source="RIfUzzzm_-wpYz4NOER9-11" target="RIfUzzzm_-wpYz4NOER9-7">
          <mxGeometry width="100" height="100" relative="1" as="geometry">
            <mxPoint x="400" y="-559" as="sourcePoint" />
            <mxPoint x="500" y="-659" as="targetPoint" />
            <Array as="points">
              <mxPoint x="290" y="-540" />
            </Array>
          </mxGeometry>
        </mxCell>
        <mxCell id="RIfUzzzm_-wpYz4NOER9-18" value="emp" style="shape=table;startSize=30;container=1;collapsible=1;childLayout=tableLayout;fixedRows=1;rowLines=0;fontStyle=1;align=center;resizeLast=1;" vertex="1" parent="tsf6QHsWhYLNX8EQ_W9M-1">
          <mxGeometry x="600" y="-709" width="180" height="270" as="geometry" />
        </mxCell>
        <mxCell id="RIfUzzzm_-wpYz4NOER9-19" value="" style="shape=partialRectangle;collapsible=0;dropTarget=0;pointerEvents=0;fillColor=none;top=0;left=0;bottom=1;right=0;points=[[0,0.5],[1,0.5]];portConstraint=eastwest;" vertex="1" parent="RIfUzzzm_-wpYz4NOER9-18">
          <mxGeometry y="30" width="180" height="30" as="geometry" />
        </mxCell>
        <mxCell id="RIfUzzzm_-wpYz4NOER9-20" value="PK" style="shape=partialRectangle;connectable=0;fillColor=none;top=0;left=0;bottom=0;right=0;fontStyle=1;overflow=hidden;" vertex="1" parent="RIfUzzzm_-wpYz4NOER9-19">
          <mxGeometry width="30" height="30" as="geometry">
            <mxRectangle width="30" height="30" as="alternateBounds" />
          </mxGeometry>
        </mxCell>
        <mxCell id="RIfUzzzm_-wpYz4NOER9-21" value="empno" style="shape=partialRectangle;connectable=0;fillColor=none;top=0;left=0;bottom=0;right=0;align=left;spacingLeft=6;fontStyle=5;overflow=hidden;" vertex="1" parent="RIfUzzzm_-wpYz4NOER9-19">
          <mxGeometry x="30" width="150" height="30" as="geometry">
            <mxRectangle width="150" height="30" as="alternateBounds" />
          </mxGeometry>
        </mxCell>
        <mxCell id="RIfUzzzm_-wpYz4NOER9-22" value="" style="shape=partialRectangle;collapsible=0;dropTarget=0;pointerEvents=0;fillColor=none;top=0;left=0;bottom=0;right=0;points=[[0,0.5],[1,0.5]];portConstraint=eastwest;" vertex="1" parent="RIfUzzzm_-wpYz4NOER9-18">
          <mxGeometry y="60" width="180" height="30" as="geometry" />
        </mxCell>
        <mxCell id="RIfUzzzm_-wpYz4NOER9-23" value="" style="shape=partialRectangle;connectable=0;fillColor=none;top=0;left=0;bottom=0;right=0;editable=1;overflow=hidden;" vertex="1" parent="RIfUzzzm_-wpYz4NOER9-22">
          <mxGeometry width="30" height="30" as="geometry">
            <mxRectangle width="30" height="30" as="alternateBounds" />
          </mxGeometry>
        </mxCell>
        <mxCell id="RIfUzzzm_-wpYz4NOER9-24" value="ename" style="shape=partialRectangle;connectable=0;fillColor=none;top=0;left=0;bottom=0;right=0;align=left;spacingLeft=6;overflow=hidden;" vertex="1" parent="RIfUzzzm_-wpYz4NOER9-22">
          <mxGeometry x="30" width="150" height="30" as="geometry">
            <mxRectangle width="150" height="30" as="alternateBounds" />
          </mxGeometry>
        </mxCell>
        <mxCell id="RIfUzzzm_-wpYz4NOER9-25" value="" style="shape=partialRectangle;collapsible=0;dropTarget=0;pointerEvents=0;fillColor=none;top=0;left=0;bottom=0;right=0;points=[[0,0.5],[1,0.5]];portConstraint=eastwest;" vertex="1" parent="RIfUzzzm_-wpYz4NOER9-18">
          <mxGeometry y="90" width="180" height="30" as="geometry" />
        </mxCell>
        <mxCell id="RIfUzzzm_-wpYz4NOER9-26" value="" style="shape=partialRectangle;connectable=0;fillColor=none;top=0;left=0;bottom=0;right=0;editable=1;overflow=hidden;fontStyle=1" vertex="1" parent="RIfUzzzm_-wpYz4NOER9-25">
          <mxGeometry width="30" height="30" as="geometry">
            <mxRectangle width="30" height="30" as="alternateBounds" />
          </mxGeometry>
        </mxCell>
        <mxCell id="RIfUzzzm_-wpYz4NOER9-27" value="job" style="shape=partialRectangle;connectable=0;fillColor=none;top=0;left=0;bottom=0;right=0;align=left;spacingLeft=6;overflow=hidden;" vertex="1" parent="RIfUzzzm_-wpYz4NOER9-25">
          <mxGeometry x="30" width="150" height="30" as="geometry">
            <mxRectangle width="150" height="30" as="alternateBounds" />
          </mxGeometry>
        </mxCell>
        <mxCell id="RIfUzzzm_-wpYz4NOER9-28" value="" style="shape=partialRectangle;collapsible=0;dropTarget=0;pointerEvents=0;fillColor=none;top=0;left=0;bottom=0;right=0;points=[[0,0.5],[1,0.5]];portConstraint=eastwest;" vertex="1" parent="RIfUzzzm_-wpYz4NOER9-18">
          <mxGeometry y="120" width="180" height="30" as="geometry" />
        </mxCell>
        <mxCell id="RIfUzzzm_-wpYz4NOER9-29" value="" style="shape=partialRectangle;connectable=0;fillColor=none;top=0;left=0;bottom=0;right=0;editable=1;overflow=hidden;fontStyle=1" vertex="1" parent="RIfUzzzm_-wpYz4NOER9-28">
          <mxGeometry width="30" height="30" as="geometry">
            <mxRectangle width="30" height="30" as="alternateBounds" />
          </mxGeometry>
        </mxCell>
        <mxCell id="RIfUzzzm_-wpYz4NOER9-30" value="hiredate" style="shape=partialRectangle;connectable=0;fillColor=none;top=0;left=0;bottom=0;right=0;align=left;spacingLeft=6;overflow=hidden;" vertex="1" parent="RIfUzzzm_-wpYz4NOER9-28">
          <mxGeometry x="30" width="150" height="30" as="geometry">
            <mxRectangle width="150" height="30" as="alternateBounds" />
          </mxGeometry>
        </mxCell>
        <mxCell id="RIfUzzzm_-wpYz4NOER9-31" value="" style="shape=partialRectangle;collapsible=0;dropTarget=0;pointerEvents=0;fillColor=none;top=0;left=0;bottom=0;right=0;points=[[0,0.5],[1,0.5]];portConstraint=eastwest;" vertex="1" parent="RIfUzzzm_-wpYz4NOER9-18">
          <mxGeometry y="150" width="180" height="30" as="geometry" />
        </mxCell>
        <mxCell id="RIfUzzzm_-wpYz4NOER9-32" value="" style="shape=partialRectangle;connectable=0;fillColor=none;top=0;left=0;bottom=0;right=0;editable=1;overflow=hidden;fontStyle=1" vertex="1" parent="RIfUzzzm_-wpYz4NOER9-31">
          <mxGeometry width="30" height="30" as="geometry">
            <mxRectangle width="30" height="30" as="alternateBounds" />
          </mxGeometry>
        </mxCell>
        <mxCell id="RIfUzzzm_-wpYz4NOER9-33" value="sal" style="shape=partialRectangle;connectable=0;fillColor=none;top=0;left=0;bottom=0;right=0;align=left;spacingLeft=6;overflow=hidden;" vertex="1" parent="RIfUzzzm_-wpYz4NOER9-31">
          <mxGeometry x="30" width="150" height="30" as="geometry">
            <mxRectangle width="150" height="30" as="alternateBounds" />
          </mxGeometry>
        </mxCell>
        <mxCell id="RIfUzzzm_-wpYz4NOER9-34" value="" style="shape=partialRectangle;collapsible=0;dropTarget=0;pointerEvents=0;fillColor=none;top=0;left=0;bottom=0;right=0;points=[[0,0.5],[1,0.5]];portConstraint=eastwest;" vertex="1" parent="RIfUzzzm_-wpYz4NOER9-18">
          <mxGeometry y="180" width="180" height="30" as="geometry" />
        </mxCell>
        <mxCell id="RIfUzzzm_-wpYz4NOER9-35" value="" style="shape=partialRectangle;connectable=0;fillColor=none;top=0;left=0;bottom=0;right=0;editable=1;overflow=hidden;fontStyle=1" vertex="1" parent="RIfUzzzm_-wpYz4NOER9-34">
          <mxGeometry width="30" height="30" as="geometry">
            <mxRectangle width="30" height="30" as="alternateBounds" />
          </mxGeometry>
        </mxCell>
        <mxCell id="RIfUzzzm_-wpYz4NOER9-36" value="com" style="shape=partialRectangle;connectable=0;fillColor=none;top=0;left=0;bottom=0;right=0;align=left;spacingLeft=6;overflow=hidden;" vertex="1" parent="RIfUzzzm_-wpYz4NOER9-34">
          <mxGeometry x="30" width="150" height="30" as="geometry">
            <mxRectangle width="150" height="30" as="alternateBounds" />
          </mxGeometry>
        </mxCell>
        <mxCell id="RIfUzzzm_-wpYz4NOER9-37" value="" style="shape=partialRectangle;collapsible=0;dropTarget=0;pointerEvents=0;fillColor=none;top=0;left=0;bottom=0;right=0;points=[[0,0.5],[1,0.5]];portConstraint=eastwest;" vertex="1" parent="RIfUzzzm_-wpYz4NOER9-18">
          <mxGeometry y="210" width="180" height="30" as="geometry" />
        </mxCell>
        <mxCell id="RIfUzzzm_-wpYz4NOER9-38" value="FK" style="shape=partialRectangle;connectable=0;fillColor=none;top=0;left=0;bottom=0;right=0;editable=1;overflow=hidden;fontStyle=1" vertex="1" parent="RIfUzzzm_-wpYz4NOER9-37">
          <mxGeometry width="30" height="30" as="geometry">
            <mxRectangle width="30" height="30" as="alternateBounds" />
          </mxGeometry>
        </mxCell>
        <mxCell id="RIfUzzzm_-wpYz4NOER9-39" value="deptno" style="shape=partialRectangle;connectable=0;fillColor=none;top=0;left=0;bottom=0;right=0;align=left;spacingLeft=6;overflow=hidden;" vertex="1" parent="RIfUzzzm_-wpYz4NOER9-37">
          <mxGeometry x="30" width="150" height="30" as="geometry">
            <mxRectangle width="150" height="30" as="alternateBounds" />
          </mxGeometry>
        </mxCell>
        <mxCell id="hP0p_TUCcX2IZvtmwBaK-0" value="" style="shape=partialRectangle;collapsible=0;dropTarget=0;pointerEvents=0;fillColor=none;top=0;left=0;bottom=0;right=0;points=[[0,0.5],[1,0.5]];portConstraint=eastwest;" vertex="1" parent="RIfUzzzm_-wpYz4NOER9-18">
          <mxGeometry y="240" width="180" height="30" as="geometry" />
        </mxCell>
        <mxCell id="hP0p_TUCcX2IZvtmwBaK-1" value="FK" style="shape=partialRectangle;connectable=0;fillColor=none;top=0;left=0;bottom=0;right=0;editable=1;overflow=hidden;fontStyle=1" vertex="1" parent="hP0p_TUCcX2IZvtmwBaK-0">
          <mxGeometry width="30" height="30" as="geometry">
            <mxRectangle width="30" height="30" as="alternateBounds" />
          </mxGeometry>
        </mxCell>
        <mxCell id="hP0p_TUCcX2IZvtmwBaK-2" value="mgrno" style="shape=partialRectangle;connectable=0;fillColor=none;top=0;left=0;bottom=0;right=0;align=left;spacingLeft=6;overflow=hidden;" vertex="1" parent="hP0p_TUCcX2IZvtmwBaK-0">
          <mxGeometry x="30" width="150" height="30" as="geometry">
            <mxRectangle width="150" height="30" as="alternateBounds" />
          </mxGeometry>
        </mxCell>
        <mxCell id="RIfUzzzm_-wpYz4NOER9-40" value="" style="edgeStyle=elbowEdgeStyle;fontSize=12;html=1;endArrow=ERmany;rounded=0;entryX=0;entryY=0.5;entryDx=0;entryDy=0;exitX=1;exitY=0.5;exitDx=0;exitDy=0;" edge="1" parent="tsf6QHsWhYLNX8EQ_W9M-1" source="RIfUzzzm_-wpYz4NOER9-1" target="RIfUzzzm_-wpYz4NOER9-37">
          <mxGeometry width="100" height="100" relative="1" as="geometry">
            <mxPoint x="430" y="-479" as="sourcePoint" />
            <mxPoint x="500" y="-459" as="targetPoint" />
          </mxGeometry>
        </mxCell>
        <mxCell id="RIfUzzzm_-wpYz4NOER9-41" value="mgr" style="shape=table;startSize=30;container=1;collapsible=1;childLayout=tableLayout;fixedRows=1;rowLines=0;fontStyle=1;align=center;resizeLast=1;" vertex="1" parent="tsf6QHsWhYLNX8EQ_W9M-1">
          <mxGeometry x="850" y="-470" width="180" height="70" as="geometry" />
        </mxCell>
        <mxCell id="RIfUzzzm_-wpYz4NOER9-42" value="" style="shape=partialRectangle;collapsible=0;dropTarget=0;pointerEvents=0;fillColor=none;top=0;left=0;bottom=0;right=0;points=[[0,0.5],[1,0.5]];portConstraint=eastwest;" vertex="1" parent="RIfUzzzm_-wpYz4NOER9-41">
          <mxGeometry y="30" width="180" height="30" as="geometry" />
        </mxCell>
        <mxCell id="RIfUzzzm_-wpYz4NOER9-43" value="FK, PK" style="shape=partialRectangle;connectable=0;fillColor=none;top=0;left=0;bottom=0;right=0;editable=1;overflow=hidden;fontStyle=1" vertex="1" parent="RIfUzzzm_-wpYz4NOER9-42">
          <mxGeometry width="50" height="30" as="geometry">
            <mxRectangle width="50" height="30" as="alternateBounds" />
          </mxGeometry>
        </mxCell>
        <mxCell id="RIfUzzzm_-wpYz4NOER9-44" value="mgrno" style="shape=partialRectangle;connectable=0;fillColor=none;top=0;left=0;bottom=0;right=0;align=left;spacingLeft=6;overflow=hidden;" vertex="1" parent="RIfUzzzm_-wpYz4NOER9-42">
          <mxGeometry x="50" width="130" height="30" as="geometry">
            <mxRectangle width="130" height="30" as="alternateBounds" />
          </mxGeometry>
        </mxCell>
        <mxCell id="hP0p_TUCcX2IZvtmwBaK-3" value="" style="edgeStyle=elbowEdgeStyle;fontSize=12;html=1;endArrow=ERmany;rounded=0;entryX=0;entryY=0.5;entryDx=0;entryDy=0;exitX=0.006;exitY=0.933;exitDx=0;exitDy=0;exitPerimeter=0;" edge="1" parent="tsf6QHsWhYLNX8EQ_W9M-1" source="RIfUzzzm_-wpYz4NOER9-42" target="hP0p_TUCcX2IZvtmwBaK-0">
          <mxGeometry width="100" height="100" relative="1" as="geometry">
            <mxPoint x="850" y="-405" as="sourcePoint" />
            <mxPoint x="610" y="-474" as="targetPoint" />
            <Array as="points">
              <mxPoint x="560" y="-430" />
              <mxPoint x="560" y="-410" />
            </Array>
          </mxGeometry>
        </mxCell>
        <mxCell id="T_nQ0FFRc3UsN1VZCO7Z-4" value="" style="endArrow=none;html=1;rounded=0;entryX=-0.011;entryY=0.3;entryDx=0;entryDy=0;entryPerimeter=0;exitX=1;exitY=0.5;exitDx=0;exitDy=0;edgeStyle=elbowEdgeStyle;" edge="1" parent="tsf6QHsWhYLNX8EQ_W9M-1" source="RIfUzzzm_-wpYz4NOER9-19" target="RIfUzzzm_-wpYz4NOER9-42">
          <mxGeometry relative="1" as="geometry">
            <mxPoint x="620" y="-560" as="sourcePoint" />
            <mxPoint x="780" y="-560" as="targetPoint" />
          </mxGeometry>
        </mxCell>
      </root>
    </mxGraphModel>
  </diagram>
</mxfile>
